<svg width="1920" height="1080" viewBox="0 0 1920 1080" fill="none" xmlns="http://www.w3.org/2000/svg">
  <defs>
    <linearGradient id="grad1" x1="0%" y1="0%" x2="100%" y2="100%">
      <stop offset="0%" style="stop-color:#667eea;stop-opacity:1" />
      <stop offset="100%" style="stop-color:#764ba2;stop-opacity:1" />
    </linearGradient>
    <linearGradient id="grad2" x1="0%" y1="0%" x2="100%" y2="100%">
      <stop offset="0%" style="stop-color:#f093fb;stop-opacity:0.3" />
      <stop offset="100%" style="stop-color:#f5576c;stop-opacity:0.3" />
    </linearGradient>
  </defs>
  
  <!-- Background -->
  <rect width="1920" height="1080" fill="url(#grad1)"/>
  
  <!-- Musical notes pattern -->
  <g fill="url(#grad2)" opacity="0.6">
    <!-- Note 1 -->
    <circle cx="200" cy="200" r="8"/>
    <rect x="208" y="200" width="4" height="60"/>
    <ellipse cx="210" cy="260" rx="12" ry="8"/>
    
    <!-- Note 2 -->
    <circle cx="400" cy="300" r="8"/>
    <rect x="408" y="300" width="4" height="60"/>
    <ellipse cx="410" cy="360" rx="12" ry="8"/>
    
    <!-- Note 3 -->
    <circle cx="600" cy="150" r="8"/>
    <rect x="608" y="150" width="4" height="60"/>
    <ellipse cx="610" cy="210" rx="12" ry="8"/>
    
    <!-- Note 4 -->
    <circle cx="800" cy="400" r="8"/>
    <rect x="808" y="400" width="4" height="60"/>
    <ellipse cx="810" cy="460" rx="12" ry="8"/>
    
    <!-- Note 5 -->
    <circle cx="1000" cy="250" r="8"/>
    <rect x="1008" y="250" width="4" height="60"/>
    <ellipse cx="1010" cy="310" rx="12" ry="8"/>
    
    <!-- Note 6 -->
    <circle cx="1200" cy="350" r="8"/>
    <rect x="1208" y="350" width="4" height="60"/>
    <ellipse cx="1210" cy="410" rx="12" ry="8"/>
    
    <!-- Note 7 -->
    <circle cx="1400" cy="180" r="8"/>
    <rect x="1408" y="180" width="4" height="60"/>
    <ellipse cx="1410" cy="240" rx="12" ry="8"/>
    
    <!-- Note 8 -->
    <circle cx="1600" cy="320" r="8"/>
    <rect x="1608" y="320" width="4" height="60"/>
    <ellipse cx="1610" cy="380" rx="12" ry="8"/>
    
    <!-- Note 9 -->
    <circle cx="1800" cy="220" r="8"/>
    <rect x="1808" y="220" width="4" height="60"/>
    <ellipse cx="1810" cy="280" rx="12" ry="8"/>
  </g>
  
  <!-- Piano keys -->
  <g fill="white" opacity="0.1">
    <rect x="0" y="800" width="1920" height="280"/>
    <rect x="0" y="800" width="137" height="280"/>
    <rect x="274" y="800" width="137" height="280"/>
    <rect x="548" y="800" width="137" height="280"/>
    <rect x="822" y="800" width="137" height="280"/>
    <rect x="1096" y="800" width="137" height="280"/>
    <rect x="1370" y="800" width="137" height="280"/>
    <rect x="1644" y="800" width="137" height="280"/>
    <rect x="1918" y="800" width="2" height="280"/>
  </g>
</svg> 