<svg width="1920" height="1080" viewBox="0 0 1920 1080" fill="none" xmlns="http://www.w3.org/2000/svg">
  <defs>
    <linearGradient id="grad1" x1="0%" y1="0%" x2="100%" y2="100%">
      <stop offset="0%" style="stop-color:#43e97b;stop-opacity:1" />
      <stop offset="100%" style="stop-color:#38f9d7;stop-opacity:1" />
    </linearGradient>
    <linearGradient id="grad2" x1="0%" y1="0%" x2="100%" y2="100%">
      <stop offset="0%" style="stop-color:#4facfe;stop-opacity:0.3" />
      <stop offset="100%" style="stop-color:#00f2fe;stop-opacity:0.3" />
    </linearGradient>
  </defs>
  
  <!-- Background -->
  <rect width="1920" height="1080" fill="url(#grad1)"/>
  
  <!-- Music sheets -->
  <g fill="white" opacity="0.15">
    <!-- Sheet 1 -->
    <rect x="200" y="200" width="300" height="400" rx="10"/>
    <line x1="220" y1="240" x2="480" y2="240" stroke="white" stroke-width="2"/>
    <line x1="220" y1="260" x2="480" y2="260" stroke="white" stroke-width="2"/>
    <line x1="220" y1="280" x2="480" y2="280" stroke="white" stroke-width="2"/>
    <line x1="220" y1="300" x2="480" y2="300" stroke="white" stroke-width="2"/>
    <line x1="220" y1="320" x2="480" y2="320" stroke="white" stroke-width="2"/>
    <line x1="220" y1="340" x2="480" y2="340" stroke="white" stroke-width="2"/>
    <line x1="220" y1="360" x2="480" y2="360" stroke="white" stroke-width="2"/>
    <line x1="220" y1="380" x2="480" y2="380" stroke="white" stroke-width="2"/>
    <line x1="220" y1="400" x2="480" y2="400" stroke="white" stroke-width="2"/>
    <line x1="220" y1="420" x2="480" y2="420" stroke="white" stroke-width="2"/>
    <line x1="220" y1="440" x2="480" y2="440" stroke="white" stroke-width="2"/>
    <line x1="220" y1="460" x2="480" y2="460" stroke="white" stroke-width="2"/>
    <line x1="220" y1="480" x2="480" y2="480" stroke="white" stroke-width="2"/>
    <line x1="220" y1="500" x2="480" y2="500" stroke="white" stroke-width="2"/>
    <line x1="220" y1="520" x2="480" y2="520" stroke="white" stroke-width="2"/>
    <line x1="220" y1="540" x2="480" y2="540" stroke="white" stroke-width="2"/>
    <line x1="220" y1="560" x2="480" y2="560" stroke="white" stroke-width="2"/>
    <line x1="220" y1="580" x2="480" y2="580" stroke="white" stroke-width="2"/>
    
    <!-- Sheet 2 -->
    <rect x="600" y="250" width="280" height="350" rx="8"/>
    <line x1="620" y1="280" x2="860" y2="280" stroke="white" stroke-width="2"/>
    <line x1="620" y1="300" x2="860" y2="300" stroke="white" stroke-width="2"/>
    <line x1="620" y1="320" x2="860" y2="320" stroke="white" stroke-width="2"/>
    <line x1="620" y1="340" x2="860" y2="340" stroke="white" stroke-width="2"/>
    <line x1="620" y1="360" x2="860" y2="360" stroke="white" stroke-width="2"/>
    <line x1="620" y1="380" x2="860" y2="380" stroke="white" stroke-width="2"/>
    <line x1="620" y1="400" x2="860" y2="400" stroke="white" stroke-width="2"/>
    <line x1="620" y1="420" x2="860" y2="420" stroke="white" stroke-width="2"/>
    <line x1="620" y1="440" x2="860" y2="440" stroke="white" stroke-width="2"/>
    <line x1="620" y1="460" x2="860" y2="460" stroke="white" stroke-width="2"/>
    <line x1="620" y1="480" x2="860" y2="480" stroke="white" stroke-width="2"/>
    <line x1="620" y1="500" x2="860" y2="500" stroke="white" stroke-width="2"/>
    <line x1="620" y1="520" x2="860" y2="520" stroke="white" stroke-width="2"/>
    <line x1="620" y1="540" x2="860" y2="540" stroke="white" stroke-width="2"/>
    <line x1="620" y1="560" x2="860" y2="560" stroke="white" stroke-width="2"/>
    
    <!-- Sheet 3 -->
    <rect x="1000" y="220" width="320" height="380" rx="12"/>
    <line x1="1020" y1="250" x2="1300" y2="250" stroke="white" stroke-width="2"/>
    <line x1="1020" y1="270" x2="1300" y2="270" stroke="white" stroke-width="2"/>
    <line x1="1020" y1="290" x2="1300" y2="290" stroke="white" stroke-width="2"/>
    <line x1="1020" y1="310" x2="1300" y2="310" stroke="white" stroke-width="2"/>
    <line x1="1020" y1="330" x2="1300" y2="330" stroke="white" stroke-width="2"/>
    <line x1="1020" y1="350" x2="1300" y2="350" stroke="white" stroke-width="2"/>
    <line x1="1020" y1="370" x2="1300" y2="370" stroke="white" stroke-width="2"/>
    <line x1="1020" y1="390" x2="1300" y2="390" stroke="white" stroke-width="2"/>
    <line x1="1020" y1="410" x2="1300" y2="410" stroke="white" stroke-width="2"/>
    <line x1="1020" y1="430" x2="1300" y2="430" stroke="white" stroke-width="2"/>
    <line x1="1020" y1="450" x2="1300" y2="450" stroke="white" stroke-width="2"/>
    <line x1="1020" y1="470" x2="1300" y2="470" stroke="white" stroke-width="2"/>
    <line x1="1020" y1="490" x2="1300" y2="490" stroke="white" stroke-width="2"/>
    <line x1="1020" y1="510" x2="1300" y2="510" stroke="white" stroke-width="2"/>
    <line x1="1020" y1="530" x2="1300" y2="530" stroke="white" stroke-width="2"/>
    <line x1="1020" y1="550" x2="1300" y2="550" stroke="white" stroke-width="2"/>
    <line x1="1020" y1="570" x2="1300" y2="570" stroke="white" stroke-width="2"/>
    
    <!-- Sheet 4 -->
    <rect x="1400" y="280" width="260" height="320" rx="6"/>
    <line x1="1420" y1="300" x2="1640" y2="300" stroke="white" stroke-width="2"/>
    <line x1="1420" y1="320" x2="1640" y2="320" stroke="white" stroke-width="2"/>
    <line x1="1420" y1="340" x2="1640" y2="340" stroke="white" stroke-width="2"/>
    <line x1="1420" y1="360" x2="1640" y2="360" stroke="white" stroke-width="2"/>
    <line x1="1420" y1="380" x2="1640" y2="380" stroke="white" stroke-width="2"/>
    <line x1="1420" y1="400" x2="1640" y2="400" stroke="white" stroke-width="2"/>
    <line x1="1420" y1="420" x2="1640" y2="420" stroke="white" stroke-width="2"/>
    <line x1="1420" y1="440" x2="1640" y2="440" stroke="white" stroke-width="2"/>
    <line x1="1420" y1="460" x2="1640" y2="460" stroke="white" stroke-width="2"/>
    <line x1="1420" y1="480" x2="1640" y2="480" stroke="white" stroke-width="2"/>
    <line x1="1420" y1="500" x2="1640" y2="500" stroke="white" stroke-width="2"/>
    <line x1="1420" y1="520" x2="1640" y2="520" stroke="white" stroke-width="2"/>
    <line x1="1420" y1="540" x2="1640" y2="540" stroke="white" stroke-width="2"/>
    <line x1="1420" y1="560" x2="1640" y2="560" stroke="white" stroke-width="2"/>
  </g>
  
  <!-- Musical notes on sheets -->
  <g fill="url(#grad2)" opacity="0.7">
    <!-- Notes on sheet 1 -->
    <circle cx="250" cy="270" r="6"/>
    <rect x="256" y="270" width="2" height="25"/>
    <ellipse cx="258" cy="295" rx="8" ry="5"/>
    
    <circle cx="350" cy="310" r="5"/>
    <rect x="355" y="310" width="2" height="20"/>
    <ellipse cx="357" cy="330" rx="6" ry="4"/>
    
    <circle cx="280" cy="350" r="7"/>
    <rect x="287" y="350" width="2" height="30"/>
    <ellipse cx="289" cy="380" rx="9" ry="6"/>
    
    <!-- Notes on sheet 2 -->
    <circle cx="650" cy="300" r="6"/>
    <rect x="656" y="300" width="2" height="25"/>
    <ellipse cx="658" cy="325" rx="8" ry="5"/>
    
    <circle cx="750" cy="340" r="5"/>
    <rect x="755" y="340" width="2" height="20"/>
    <ellipse cx="757" cy="360" rx="6" ry="4"/>
    
    <!-- Notes on sheet 3 -->
    <circle cx="1050" cy="270" r="7"/>
    <rect x="1057" y="270" width="2" height="30"/>
    <ellipse cx="1059" cy="300" rx="9" ry="6"/>
    
    <circle cx="1150" cy="310" r="6"/>
    <rect x="1156" y="310" width="2" height="25"/>
    <ellipse cx="1158" cy="335" rx="8" ry="5"/>
    
    <!-- Notes on sheet 4 -->
    <circle cx="1450" cy="320" r="5"/>
    <rect x="1455" y="320" width="2" height="20"/>
    <ellipse cx="1457" cy="340" rx="6" ry="4"/>
    
    <circle cx="1550" cy="360" r="6"/>
    <rect x="1556" y="360" width="2" height="25"/>
    <ellipse cx="1558" cy="385" rx="8" ry="5"/>
  </g>
  
  <!-- Floating notes -->
  <g fill="white" opacity="0.3">
    <circle cx="400" cy="700" r="4"/>
    <rect x="404" y="700" width="1" height="15"/>
    <ellipse cx="405" cy="715" rx="3" ry="2"/>
    
    <circle cx="800" cy="720" r="3"/>
    <rect x="803" y="720" width="1" height="12"/>
    <ellipse cx="804" cy="732" rx="2" ry="1.5"/>
    
    <circle cx="1200" cy="680" r="5"/>
    <rect x="1205" y="680" width="1" height="18"/>
    <ellipse cx="1206" cy="698" rx="4" ry="2.5"/>
    
    <circle cx="1600" cy="700" r="4"/>
    <rect x="1604" y="700" width="1" height="15"/>
    <ellipse cx="1605" cy="715" rx="3" ry="2"/>
  </g>
</svg> 